<svg width="327" height="138" viewBox="0 0 327 138" fill="none" xmlns="http://www.w3.org/2000/svg">
<rect width="327" height="186" rx="16" fill="#4CD080"/>
<ellipse opacity="0.6" cx="279.846" cy="30" rx="13.8462" ry="14" fill="white"/>
<ellipse opacity="0.4" cx="297.154" cy="30" rx="13.8462" ry="14" fill="white"/>
<path fill-rule="evenodd" clip-rule="evenodd" d="M288.5 40.9296C291.665 38.3639 293.692 34.4213 293.692 30.0001C293.692 25.579 291.665 21.6365 288.5 19.0708C285.335 21.6365 283.308 25.5791 283.308 30.0003C283.308 34.4214 285.334 38.3639 288.5 40.9296Z" fill="white"/>
<path d="M22.072 64.712H24.808V62.12C27.904 61.568 29.632 59.552 29.632 56.912C29.632 54.488 28.168 52.76 25.12 52.184L24.568 52.088V48.08C25.576 48.296 26.44 48.776 27.112 49.52L29.176 47.216C28.216 46.112 26.8 45.296 24.808 45.032V42.536H22.072V45.056C18.976 45.464 17.248 47.264 17.248 49.952C17.248 52.4 18.688 54.224 21.76 54.776L22.312 54.872V59.288C21.016 59.096 19.816 58.496 18.808 57.416L16.72 59.696C17.848 61.112 19.696 62.048 22.072 62.24V64.712ZM20.632 49.832C20.632 48.824 21.136 48.2 22.312 48.008V51.632C21.136 51.32 20.632 50.84 20.632 49.832ZM26.272 57.152C26.272 58.256 25.72 59 24.568 59.264V55.304C25.744 55.592 26.272 56.072 26.272 57.152ZM43.7106 58.976H35.6466L38.8386 56.504C41.3586 54.584 43.3506 52.784 43.3506 50C43.3506 47.096 41.2386 44.96 37.5666 44.96C34.0146 44.96 32.0466 46.928 31.3026 49.232L34.4466 50.432C34.8066 49.16 35.5986 48.08 37.2066 48.08C38.5986 48.08 39.5106 48.824 39.5106 50.216V50.456C39.5106 51.728 38.7666 52.76 36.9426 54.32L31.6626 58.712V62H43.7106V58.976ZM52.0773 62.288C55.9413 62.288 58.4373 59.84 58.4373 56.432C58.4373 53.24 56.2773 51.2 53.4693 51.2C51.2853 51.2 50.2773 52.448 49.6773 53.72L49.4613 53.648C50.1573 50.408 52.6293 48.152 56.7812 45.248H51.8133C48.9093 47.192 45.6933 50.936 45.6933 55.64C45.6933 59.672 48.0453 62.288 52.0773 62.288ZM52.0533 59.48C50.3493 59.48 49.4373 58.52 49.4373 56.864V56.528C49.4373 54.872 50.4213 53.96 52.0533 53.96C53.7333 53.96 54.6933 54.872 54.6933 56.528V56.864C54.6933 58.52 53.7813 59.48 52.0533 59.48ZM63.2519 65.624H65.8919L69.1799 57.824H64.6199L63.2519 65.624ZM87.0505 51.608C87.0505 47.576 84.6985 44.96 80.6665 44.96C76.8025 44.96 74.3065 47.408 74.3065 50.816C74.3065 54.008 76.4665 56.048 79.2745 56.048C81.4585 56.048 82.4665 54.8 83.0665 53.528L83.2825 53.6C82.5865 56.84 80.1145 59.096 75.9625 62H80.9305C83.8345 60.056 87.0505 56.312 87.0505 51.608ZM80.6905 53.288C79.0105 53.288 78.0505 52.376 78.0505 50.72V50.384C78.0505 48.728 78.9625 47.768 80.6905 47.768C82.3945 47.768 83.3065 48.728 83.3065 50.384V50.72C83.3065 52.376 82.3225 53.288 80.6905 53.288ZM95.2491 62.288C99.1131 62.288 101.609 59.84 101.609 56.432C101.609 53.24 99.4491 51.2 96.6411 51.2C94.4571 51.2 93.4491 52.448 92.8491 53.72L92.6331 53.648C93.3291 50.408 95.8011 48.152 99.9531 45.248H94.9851C92.0811 47.192 88.8651 50.936 88.8651 55.64C88.8651 59.672 91.2171 62.288 95.2491 62.288ZM95.2251 59.48C93.5211 59.48 92.6091 58.52 92.6091 56.864V56.528C92.6091 54.872 93.5931 53.96 95.2251 53.96C96.9051 53.96 97.8651 54.872 97.8651 56.528V56.864C97.8651 58.52 96.9531 59.48 95.2251 59.48ZM109.544 62.288C113.576 62.288 115.88 60.224 115.88 57.392C115.88 55.232 114.488 53.888 112.544 53.36V53.168C114.2 52.568 115.376 51.32 115.376 49.376C115.376 46.808 113.288 44.96 109.544 44.96C105.8 44.96 103.712 46.808 103.712 49.376C103.712 51.32 104.888 52.568 106.544 53.168V53.36C104.6 53.888 103.208 55.232 103.208 57.392C103.208 60.224 105.512 62.288 109.544 62.288ZM109.544 59.528C107.888 59.528 106.976 58.688 106.976 57.392V56.912C106.976 55.592 107.864 54.776 109.544 54.776C111.224 54.776 112.112 55.592 112.112 56.912V57.392C112.112 58.688 111.2 59.528 109.544 59.528ZM109.544 52.136C107.96 52.136 107.096 51.344 107.096 50.096V49.736C107.096 48.488 107.984 47.72 109.544 47.72C111.104 47.72 111.992 48.488 111.992 49.736V50.096C111.992 51.344 111.128 52.136 109.544 52.136ZM123.934 62.288C125.734 62.288 126.454 61.376 126.454 60.296V59.456C126.454 58.376 125.734 57.464 123.934 57.464C122.134 57.464 121.414 58.376 121.414 59.456V60.296C121.414 61.376 122.134 62.288 123.934 62.288ZM138.325 62.288C142.813 62.288 144.877 59.096 144.877 53.624C144.877 48.152 142.813 44.96 138.325 44.96C133.837 44.96 131.773 48.152 131.773 53.624C131.773 59.096 133.837 62.288 138.325 62.288ZM138.325 59.456C136.189 59.456 135.445 57.848 135.445 55.184V52.064C135.445 49.4 136.189 47.792 138.325 47.792C140.461 47.792 141.205 49.4 141.205 52.064V55.184C141.205 57.848 140.461 59.456 138.325 59.456ZM138.325 55.04C139.429 55.04 139.813 54.536 139.813 53.888V53.36C139.813 52.712 139.429 52.208 138.325 52.208C137.221 52.208 136.837 52.712 136.837 53.36V53.888C136.837 54.536 137.221 55.04 138.325 55.04ZM152.716 62.288C157.204 62.288 159.268 59.096 159.268 53.624C159.268 48.152 157.204 44.96 152.716 44.96C148.228 44.96 146.164 48.152 146.164 53.624C146.164 59.096 148.228 62.288 152.716 62.288ZM152.716 59.456C150.58 59.456 149.836 57.848 149.836 55.184V52.064C149.836 49.4 150.58 47.792 152.716 47.792C154.852 47.792 155.596 49.4 155.596 52.064V55.184C155.596 57.848 154.852 59.456 152.716 59.456ZM152.716 55.04C153.82 55.04 154.204 54.536 154.204 53.888V53.36C154.204 52.712 153.82 52.208 152.716 52.208C151.612 52.208 151.228 52.712 151.228 53.36V53.888C151.228 54.536 151.612 55.04 152.716 55.04Z" fill="white"/>
<path d="M17.232 31H20.97C22.482 31 23.602 29.768 23.602 28.186C23.602 26.828 22.804 26.142 21.712 25.89V25.848C22.608 25.568 23.238 24.91 23.238 23.748C23.238 22.222 22.216 21.228 20.55 21.228H17.232V31ZM18.408 29.978V26.436H20.62C21.698 26.436 22.356 26.94 22.356 27.92V28.494C22.356 29.488 21.698 29.978 20.62 29.978H18.408ZM18.408 25.47V22.25H20.424C21.404 22.25 22.006 22.698 22.006 23.594V24.14C22.006 25.036 21.404 25.47 20.424 25.47H18.408ZM32.0945 31V30.02H31.0865V26.044C31.0865 24.518 30.0085 23.608 28.3145 23.608C26.8445 23.608 25.9205 24.308 25.5565 25.064L26.3125 25.624C26.6905 24.966 27.2785 24.56 28.2445 24.56C29.3365 24.56 29.9665 25.106 29.9665 26.156V26.87H28.4265C26.2565 26.87 25.3185 27.64 25.3185 28.97C25.3185 30.328 26.2845 31.168 27.7965 31.168C28.9725 31.168 29.6585 30.65 29.9665 29.824H30.0365C30.1205 30.496 30.4565 31 31.3245 31H32.0945ZM27.9925 30.23C27.0685 30.23 26.4945 29.838 26.4945 29.096V28.802C26.4945 28.102 27.0965 27.71 28.4265 27.71H29.9665V28.9C29.9665 29.642 29.1405 30.23 27.9925 30.23ZM33.9091 31H40.0691V30.048H37.5491V20.64H33.9091V21.592H36.4291V30.048H33.9091V31ZM48.8836 31V30.02H47.8756V26.044C47.8756 24.518 46.7976 23.608 45.1036 23.608C43.6336 23.608 42.7096 24.308 42.3456 25.064L43.1016 25.624C43.4796 24.966 44.0676 24.56 45.0336 24.56C46.1256 24.56 46.7556 25.106 46.7556 26.156V26.87H45.2156C43.0456 26.87 42.1076 27.64 42.1076 28.97C42.1076 30.328 43.0736 31.168 44.5856 31.168C45.7616 31.168 46.4476 30.65 46.7556 29.824H46.8256C46.9096 30.496 47.2456 31 48.1136 31H48.8836ZM44.7816 30.23C43.8576 30.23 43.2836 29.838 43.2836 29.096V28.802C43.2836 28.102 43.8856 27.71 45.2156 27.71H46.7556V28.9C46.7556 29.642 45.9296 30.23 44.7816 30.23ZM52.0701 31V25.988C52.0701 25.036 52.9661 24.602 53.8621 24.602C54.9681 24.602 55.5701 25.246 55.5701 26.562V31H56.6901V26.366C56.6901 24.616 55.6961 23.608 54.1841 23.608C52.9941 23.608 52.4341 24.238 52.1261 24.952H52.0701V23.776H50.9501V31H52.0701ZM62.4247 31.168C63.8667 31.168 64.7767 30.454 65.1967 29.488L64.3987 28.942C64.0347 29.726 63.4047 30.202 62.4387 30.202C61.0807 30.202 60.3527 29.278 60.3527 28.004V26.772C60.3527 25.498 61.0947 24.574 62.4107 24.574C63.3067 24.574 63.9227 25.008 64.1887 25.75L65.0847 25.274C64.6787 24.294 63.8107 23.608 62.4107 23.608C60.3667 23.608 59.1487 25.092 59.1487 27.388C59.1487 29.67 60.3527 31.168 62.4247 31.168ZM70.6932 31.168C72.1212 31.168 73.1572 30.468 73.5912 29.502L72.7652 28.942C72.3872 29.726 71.6592 30.202 70.6932 30.202C69.3352 30.202 68.4812 29.278 68.4812 28.004V27.668H73.8292V27.136C73.8292 25.092 72.5692 23.608 70.6232 23.608C68.6632 23.608 67.3052 25.092 67.3052 27.402C67.3052 29.684 68.6212 31.168 70.6932 31.168ZM70.6232 24.532C71.8132 24.532 72.6252 25.4 72.6252 26.674V26.828H68.4812V26.73C68.4812 25.47 69.3912 24.532 70.6232 24.532Z" fill="#F2F2F2"/>
<circle cx="75" cy="108" r="3" fill="white"/>
<circle cx="87" cy="108" r="3" fill="white"/>
<circle cx="99" cy="108" r="3" fill="white"/>
<circle cx="111" cy="108" r="3" fill="white"/>
<circle cx="133" cy="108" r="3" fill="white"/>
<circle cx="145" cy="108" r="3" fill="white"/>
<circle cx="157" cy="108" r="3" fill="white"/>
<circle cx="169" cy="108" r="3" fill="white"/>
<circle cx="191" cy="108" r="3" fill="white"/>
<circle cx="203" cy="108" r="3" fill="white"/>
<circle cx="215" cy="108" r="3" fill="white"/>
<circle cx="227" cy="108" r="3" fill="white"/>
<path d="M249.184 107.44V108.944H250.384C251.856 108.944 252.656 109.584 252.656 110.72V110.848C252.656 112 251.872 112.688 250.48 112.688C249.152 112.688 248.496 112.064 247.936 111.168L246.608 112.192C247.312 113.216 248.384 114.192 250.464 114.192C252.928 114.192 254.544 112.88 254.544 110.928C254.544 109.312 253.424 108.4 252.144 108.16V108.08C253.344 107.824 254.32 106.944 254.32 105.52C254.32 103.712 252.768 102.64 250.656 102.64C248.768 102.64 247.744 103.504 247.04 104.48L248.256 105.52C248.768 104.672 249.52 104.144 250.592 104.144C251.712 104.144 252.448 104.704 252.448 105.728V105.84C252.448 106.752 251.76 107.44 250.336 107.44H249.184ZM260.202 114L264.234 104.4V102.832H256.538V106.384H258.09V104.32H262.442L258.298 114H260.202ZM270.02 114.192C272.42 114.192 273.988 112.64 273.988 110.416C273.988 108.288 272.58 106.944 270.66 106.944C269.236 106.944 268.484 107.696 268.004 108.576L267.892 108.544C268.452 106.128 269.924 104.656 272.5 102.832H270.1C268.228 104.048 266.036 106.608 266.036 109.84C266.036 112.512 267.524 114.192 270.02 114.192ZM270.004 112.752C268.66 112.752 267.876 111.984 267.876 110.64V110.48C267.876 109.136 268.66 108.368 270.004 108.368C271.364 108.368 272.148 109.136 272.148 110.48V110.64C272.148 111.984 271.364 112.752 270.004 112.752ZM282.957 102.832H276.525L276.109 109.056L277.597 109.264C278.013 108.816 278.541 108.384 279.533 108.384C280.893 108.384 281.661 109.152 281.661 110.448V110.576C281.661 111.872 280.909 112.688 279.533 112.688C278.237 112.688 277.613 112.032 277.053 111.168L275.741 112.192C276.429 113.216 277.485 114.192 279.501 114.192C282.061 114.192 283.533 112.608 283.533 110.4C283.533 108.208 282.061 106.912 280.141 106.912C278.877 106.912 278.237 107.472 277.725 108.352H277.597L277.885 104.384H282.957V102.832Z" fill="white"/>
<g opacity="0.7">
<rect x="16.5" y="94.5" width="39" height="27" rx="5.5" fill="white" stroke="#BDBDBD"/>
<path d="M16.4165 99.25H55.5832" stroke="#BDBDBD"/>
<path d="M16.4165 115H55.5832" stroke="#BDBDBD"/>
<path d="M33.0835 109.75H55.5835" stroke="#BDBDBD"/>
<path d="M16.4165 109.75H25.5832" stroke="#BDBDBD"/>
<path d="M33.0835 104.5H55.5835" stroke="#BDBDBD"/>
<path d="M16.4165 104.5H25.1665" stroke="#BDBDBD"/>
<path d="M29.75 94.875V99.6875" stroke="#BDBDBD"/>
<path d="M29.75 115V121.563" stroke="#BDBDBD"/>
<path d="M29.3332 99.25C27.032 99.25 25.1665 101.209 25.1665 103.625C25.1665 104.59 25.4639 105.481 25.9676 106.205C26.3371 106.735 26.3371 107.515 25.9676 108.045C25.4639 108.769 25.1665 109.66 25.1665 110.625C25.1665 113.041 27.032 115 29.3332 115C31.6344 115 33.4998 113.041 33.4998 110.625C33.4998 109.66 33.2025 108.769 32.6987 108.045C32.3293 107.515 32.3293 106.735 32.6987 106.205C33.046 105.706 33.2952 105.127 33.4165 104.5" stroke="#BDBDBD"/>
</g>
</svg>
