<svg width="48" height="48" viewBox="0 0 48 48" fill="none" xmlns="http://www.w3.org/2000/svg">
<rect width="48" height="48" rx="16" fill="#FFAE58"/>
<path d="M7.96906 27V20H9.24906L12.5391 24.93V20H13.8191V27H12.5391L9.24906 22.08V27H7.96906ZM18.4561 27.12C17.7561 27.12 17.1428 26.9667 16.6161 26.66C16.0961 26.3533 15.6861 25.93 15.3861 25.39C15.0928 24.8433 14.9461 24.2133 14.9461 23.5C14.9461 22.7867 15.0928 22.16 15.3861 21.62C15.6861 21.0733 16.0961 20.6467 16.6161 20.34C17.1428 20.0333 17.7561 19.88 18.4561 19.88C19.1494 19.88 19.7594 20.0333 20.2861 20.34C20.8128 20.6467 21.2228 21.0733 21.5161 21.62C21.8094 22.16 21.9561 22.7867 21.9561 23.5C21.9561 24.2133 21.8094 24.8433 21.5161 25.39C21.2228 25.93 20.8128 26.3533 20.2861 26.66C19.7594 26.9667 19.1494 27.12 18.4561 27.12ZM18.4561 25.97C19.1228 25.97 19.6528 25.75 20.0461 25.31C20.4461 24.87 20.6461 24.2667 20.6461 23.5C20.6461 22.7333 20.4461 22.13 20.0461 21.69C19.6528 21.25 19.1228 21.03 18.4561 21.03C17.7894 21.03 17.2561 21.25 16.8561 21.69C16.4561 22.13 16.2561 22.7333 16.2561 23.5C16.2561 24.2667 16.4561 24.87 16.8561 25.31C17.2561 25.75 17.7894 25.97 18.4561 25.97ZM24.8819 27L22.3219 20H23.6919L25.6719 25.69L27.6619 20H29.0119L26.4519 27H24.8819ZM30.6041 27V21.46L29.4541 21.73V20.75L31.1441 20H31.9341V27H30.6041ZM36.1613 27.12C35.5147 27.12 34.9613 26.97 34.5013 26.67C34.0413 26.3633 33.6847 25.94 33.4313 25.4C33.1847 24.8533 33.0613 24.22 33.0613 23.5C33.0613 22.7867 33.1847 22.1567 33.4313 21.61C33.6847 21.0633 34.0413 20.64 34.5013 20.34C34.9613 20.0333 35.5147 19.88 36.1613 19.88C36.808 19.88 37.3613 20.0333 37.8213 20.34C38.2813 20.64 38.6347 21.0633 38.8813 21.61C39.1347 22.1567 39.2613 22.7867 39.2613 23.5C39.2613 24.22 39.1347 24.8533 38.8813 25.4C38.6347 25.94 38.2813 26.3633 37.8213 26.67C37.3613 26.97 36.808 27.12 36.1613 27.12ZM36.1613 25.97C36.688 25.97 37.118 25.75 37.4513 25.31C37.7847 24.87 37.9513 24.2667 37.9513 23.5C37.9513 22.7333 37.7847 22.13 37.4513 21.69C37.118 21.25 36.688 21.03 36.1613 21.03C35.628 21.03 35.1947 21.25 34.8613 21.69C34.5347 22.13 34.3713 22.7333 34.3713 23.5C34.3713 24.2667 34.5347 24.87 34.8613 25.31C35.1947 25.75 35.628 25.97 36.1613 25.97Z" fill="white"/>
</svg>
