<svg width="333" height="282" viewBox="0 0 333 282" fill="none" xmlns="http://www.w3.org/2000/svg">
<path d="M262.289 45.9671V63.5446H254.586V45.7205H216.922V63.5446H209.219V45.9671L217.231 37.9581H254.277L262.289 45.9671Z" fill="url(#paint0_linear_164_4386)"/>
<path d="M259.191 63.5453V45.9669L251.179 37.9578H214.133L206.122 45.9669V63.5453H175.306L155.321 237.346H289.693V63.5453H259.191ZM251.489 63.5453H213.824V45.7201H251.489V63.5453Z" fill="#4CD080"/>
<path d="M313.775 237.346H289.693V63.5447H293.79L313.775 237.346Z" fill="url(#paint1_linear_164_4386)"/>
<path d="M254.825 121.043C254.825 134.149 246.728 145.266 235.509 149.164V127.856C235.509 125.92 236.466 124.104 238.078 122.88C239.772 121.595 240.893 119.353 240.893 116.803C240.893 112.812 238.147 109.579 234.76 109.579C231.374 109.579 228.628 112.812 228.628 116.803C228.628 119.353 229.749 121.595 231.443 122.88C233.054 124.104 234.012 125.92 234.012 127.856V149.637C231.669 150.301 229.207 150.655 226.666 150.655C224.143 150.655 221.698 150.306 219.37 149.651V130.686C219.37 128.75 220.328 126.934 221.94 125.71C222.881 124.996 223.646 123.984 224.14 122.79C224.534 121.837 224.754 120.766 224.754 119.634V110.327C224.754 109.914 224.42 109.579 224.006 109.579H224.005C223.592 109.579 223.257 109.914 223.257 110.327V120.417C223.257 120.954 223.04 121.439 222.688 121.791C222.336 122.142 221.851 122.36 221.314 122.36C220.241 122.36 219.37 121.49 219.37 120.417V110.327C219.37 110.121 219.286 109.934 219.152 109.798C219.016 109.663 218.829 109.579 218.622 109.579C218.208 109.579 217.873 109.914 217.873 110.327V120.417C217.873 121.49 217.004 122.36 215.931 122.36H215.93C214.857 122.36 213.986 121.49 213.986 120.417V110.327C213.986 110.121 213.902 109.934 213.767 109.798C213.632 109.663 213.445 109.579 213.238 109.579C212.824 109.579 212.489 109.914 212.489 110.327V119.634C212.489 120.766 212.71 121.837 213.104 122.79C213.598 123.984 214.362 124.996 215.303 125.71C216.916 126.934 217.873 128.75 217.873 130.686V149.182C206.628 145.299 198.508 134.168 198.508 121.043C198.508 104.69 211.114 91.4314 226.666 91.4314C242.218 91.4314 254.825 104.69 254.825 121.043Z" fill="white"/>
<path d="M162.187 135.774L155.387 194.923H62.7539L69.7308 134.242H160.82C161.642 134.242 162.281 134.958 162.187 135.774Z" fill="#4CD080"/>
<path d="M148.204 134.242C147.105 134.242 146.18 135.066 146.055 136.157L145.352 142.27C144.804 147.04 140.764 150.64 135.961 150.64H62.3583C56.7102 150.64 52.3225 145.721 52.9676 140.112L53.474 135.708C53.57 134.873 54.2776 134.242 55.1188 134.242H148.204Z" fill="#AFFFCF"/>
<path d="M119.531 235.925C135.461 235.925 148.375 222.761 148.375 206.523C148.375 190.284 135.461 177.12 119.531 177.12C103.601 177.12 90.6865 190.284 90.6865 206.523C90.6865 222.761 103.601 235.925 119.531 235.925Z" fill="#105D38"/>
<path d="M114.435 177.12C98.5043 177.12 85.5897 190.284 85.5897 206.522C85.5897 222.761 98.5043 235.925 114.435 235.925C130.365 235.925 143.279 222.761 143.279 206.522C143.279 190.284 130.365 177.12 114.435 177.12ZM114.435 216.64C109.072 216.64 104.725 212.208 104.725 206.742C104.725 201.276 109.072 196.844 114.435 196.844C119.797 196.844 124.145 201.276 124.145 206.742C124.145 212.208 119.797 216.64 114.435 216.64Z" fill="#FFD2A6"/>
<path d="M118.693 182.314H116.231C115.956 182.314 115.734 182.091 115.734 181.816V181.783C115.734 181.508 115.956 181.285 116.231 181.285H118.693C118.968 181.285 119.191 181.508 119.191 181.783V181.816C119.191 182.091 118.968 182.314 118.693 182.314Z" fill="white"/>
<path d="M122.662 192.833H120.2C119.925 192.833 119.702 192.61 119.702 192.336V192.302C119.702 192.027 119.925 191.805 120.2 191.805H122.662C122.937 191.805 123.159 192.027 123.159 192.302V192.336C123.159 192.61 122.937 192.833 122.662 192.833Z" fill="#105D38"/>
<path d="M102.117 186.56L100.035 187.874C99.803 188.021 99.4958 187.952 99.3492 187.719L99.3311 187.691C99.1844 187.458 99.2538 187.151 99.486 187.005L101.568 185.691C101.8 185.544 102.107 185.614 102.254 185.846L102.272 185.874C102.419 186.107 102.349 186.414 102.117 186.56Z" fill="white"/>
<path d="M134.183 191.568L132.84 193.631C132.69 193.861 132.382 193.926 132.151 193.776L132.123 193.757C131.893 193.607 131.828 193.299 131.978 193.069L133.321 191.007C133.471 190.777 133.779 190.712 134.009 190.862L134.038 190.88C134.268 191.03 134.333 191.338 134.183 191.568Z" fill="white"/>
<path d="M113.596 191.274L111.514 192.588C111.282 192.735 110.975 192.665 110.828 192.433L110.81 192.404C110.663 192.172 110.733 191.865 110.965 191.719L113.047 190.405C113.279 190.258 113.586 190.327 113.733 190.559L113.751 190.588C113.898 190.82 113.828 191.127 113.596 191.274Z" fill="white"/>
<path d="M108.346 184.443L106.911 182.444C106.751 182.221 106.802 181.91 107.025 181.75L107.053 181.73C107.276 181.57 107.587 181.621 107.747 181.844L109.182 183.844C109.342 184.067 109.291 184.378 109.068 184.538L109.041 184.558C108.817 184.718 108.507 184.666 108.346 184.443Z" fill="#105D38"/>
<path d="M128.278 192.111L126.842 190.112C126.682 189.889 126.733 189.578 126.957 189.418L126.984 189.398C127.207 189.238 127.518 189.289 127.678 189.512L129.114 191.512C129.274 191.735 129.223 192.046 128.999 192.206L128.972 192.226C128.748 192.386 128.438 192.334 128.278 192.111Z" fill="#74B9FF"/>
<path d="M97.3467 192.889L95.4323 191.342C95.2187 191.169 95.1856 190.856 95.3583 190.642L95.3797 190.616C95.5525 190.402 95.8655 190.369 96.0791 190.542L97.9935 192.09C98.207 192.262 98.2402 192.575 98.0674 192.789L98.046 192.815C97.8734 193.029 97.5603 193.062 97.3467 192.889Z" fill="#74B9FF"/>
<path d="M127.047 185.891L125.133 184.344C124.919 184.171 124.886 183.858 125.059 183.644L125.08 183.618C125.253 183.405 125.566 183.371 125.78 183.544L127.694 185.092C127.908 185.265 127.941 185.578 127.768 185.791L127.747 185.818C127.574 186.031 127.261 186.064 127.047 185.891Z" fill="white"/>
<path d="M104.538 192.291L104.957 189.866C105.004 189.595 105.261 189.414 105.532 189.461L105.566 189.466C105.836 189.513 106.018 189.77 105.971 190.041L105.552 192.466C105.505 192.737 105.248 192.918 104.977 192.872L104.944 192.866C104.673 192.819 104.491 192.562 104.538 192.291Z" fill="#74B9FF"/>
<path d="M101.55 200.867L101.969 198.442C102.016 198.171 102.273 197.99 102.544 198.037L102.577 198.042C102.848 198.089 103.029 198.346 102.982 198.617L102.563 201.042C102.516 201.313 102.259 201.494 101.988 201.447L101.955 201.442C101.684 201.395 101.503 201.138 101.55 200.867Z" fill="#74B9FF"/>
<path d="M112.61 186.418L114.544 184.895C114.76 184.725 115.073 184.762 115.243 184.978L115.264 185.004C115.434 185.22 115.397 185.533 115.181 185.703L113.247 187.226C113.031 187.396 112.719 187.359 112.549 187.143L112.528 187.116C112.358 186.901 112.395 186.588 112.61 186.418Z" fill="#74B9FF"/>
<path d="M120.337 187.542L120.756 185.117C120.803 184.846 121.06 184.665 121.331 184.711L121.365 184.717C121.635 184.764 121.817 185.021 121.77 185.292L121.351 187.717C121.304 187.987 121.047 188.169 120.776 188.122L120.743 188.116C120.472 188.07 120.29 187.812 120.337 187.542Z" fill="#74B9FF"/>
<path d="M131.838 222.249L133.303 220.27C133.466 220.049 133.778 220.003 133.999 220.166L134.026 220.187C134.247 220.35 134.293 220.661 134.13 220.882L132.665 222.86C132.502 223.081 132.19 223.127 131.969 222.964L131.942 222.944C131.721 222.781 131.675 222.469 131.838 222.249Z" fill="white"/>
<path d="M122.164 218.496L123.629 216.518C123.792 216.297 124.104 216.251 124.324 216.414L124.352 216.434C124.572 216.598 124.619 216.909 124.456 217.13L122.991 219.108C122.828 219.329 122.516 219.375 122.295 219.212L122.268 219.192C122.047 219.028 122.001 218.717 122.164 218.496Z" fill="#105D38"/>
<path d="M138.284 206.403L138.466 203.949C138.486 203.675 138.725 203.469 138.999 203.49L139.033 203.492C139.307 203.512 139.513 203.751 139.493 204.025L139.311 206.479C139.291 206.753 139.052 206.958 138.778 206.938L138.744 206.936C138.47 206.915 138.264 206.677 138.284 206.403Z" fill="white"/>
<path d="M124.709 198.676L124.89 196.221C124.911 195.947 125.149 195.742 125.424 195.762L125.457 195.764C125.732 195.785 125.937 196.023 125.917 196.297L125.735 198.752C125.715 199.025 125.476 199.231 125.202 199.211L125.168 199.208C124.894 199.188 124.688 198.949 124.709 198.676Z" fill="white"/>
<path d="M116.625 230.809L115.765 228.503C115.67 228.245 115.8 227.959 116.058 227.863L116.09 227.851C116.347 227.756 116.634 227.887 116.729 228.144L117.589 230.45C117.685 230.708 117.554 230.994 117.296 231.09L117.264 231.102C117.007 231.197 116.721 231.067 116.625 230.809Z" fill="white"/>
<path d="M127.665 212.822L127.847 210.368C127.867 210.094 128.106 209.888 128.38 209.909L128.414 209.911C128.688 209.931 128.894 210.17 128.874 210.444L128.692 212.898C128.671 213.172 128.433 213.378 128.159 213.357L128.125 213.355C127.851 213.335 127.645 213.096 127.665 212.822Z" fill="white"/>
<path d="M136.281 212.668L138.743 212.704C139.017 212.708 139.237 212.934 139.233 213.209L139.232 213.243C139.228 213.517 139.002 213.736 138.728 213.732L136.266 213.696C135.991 213.692 135.772 213.466 135.776 213.192L135.776 213.158C135.78 212.883 136.006 212.664 136.281 212.668Z" fill="#105D38"/>
<path d="M112.506 221.033L114.968 221.069C115.243 221.073 115.462 221.299 115.458 221.574L115.458 221.608C115.454 221.882 115.228 222.102 114.953 222.098L112.491 222.061C112.216 222.057 111.997 221.831 112.001 221.557L112.002 221.523C112.006 221.248 112.232 221.029 112.506 221.033Z" fill="#105D38"/>
<path d="M118.258 224.121L120.72 224.158C120.994 224.162 121.214 224.388 121.21 224.662L121.209 224.696C121.205 224.971 120.979 225.19 120.705 225.186L118.243 225.149C117.968 225.145 117.749 224.919 117.753 224.645L117.753 224.611C117.757 224.336 117.983 224.117 118.258 224.121Z" fill="#74B9FF"/>
<path d="M136.033 198.805L138.416 198.187C138.682 198.119 138.953 198.278 139.022 198.544L139.031 198.577C139.1 198.843 138.94 199.114 138.674 199.183L136.291 199.8C136.025 199.869 135.753 199.71 135.684 199.444L135.676 199.411C135.607 199.145 135.767 198.874 136.033 198.805Z" fill="#74B9FF"/>
<path d="M127.675 201.625L130.059 201.007C130.325 200.938 130.596 201.098 130.665 201.364L130.673 201.397C130.742 201.663 130.583 201.934 130.317 202.003L127.933 202.62C127.667 202.689 127.396 202.529 127.327 202.264L127.319 202.231C127.25 201.965 127.409 201.694 127.675 201.625Z" fill="#74B9FF"/>
<path d="M123.991 226.833L126.375 226.215C126.641 226.146 126.912 226.306 126.981 226.572L126.99 226.605C127.059 226.87 126.899 227.142 126.633 227.211L124.249 227.828C123.984 227.897 123.712 227.737 123.643 227.472L123.635 227.439C123.566 227.173 123.726 226.901 123.991 226.833Z" fill="white"/>
<path d="M132.235 204.939L133.936 206.719C134.126 206.917 134.119 207.232 133.92 207.422L133.896 207.445C133.697 207.635 133.382 207.628 133.192 207.429L131.492 205.65C131.302 205.451 131.309 205.136 131.508 204.947L131.532 204.923C131.731 204.733 132.046 204.741 132.235 204.939Z" fill="#74B9FF"/>
<path d="M132.157 214.919L132.231 217.379C132.24 217.654 132.024 217.883 131.749 217.891L131.715 217.892C131.44 217.901 131.211 217.685 131.203 217.41L131.128 214.95C131.12 214.676 131.336 214.447 131.61 214.438L131.644 214.437C131.919 214.429 132.149 214.645 132.157 214.919Z" fill="#74B9FF"/>
<path d="M126.656 220.459L128.357 222.239C128.547 222.437 128.539 222.752 128.341 222.942L128.316 222.965C128.118 223.155 127.803 223.148 127.613 222.949L125.912 221.169C125.722 220.971 125.73 220.656 125.928 220.466L125.953 220.443C126.151 220.253 126.466 220.261 126.656 220.459Z" fill="#74B9FF"/>
<path d="M92.4733 213.888L93.5574 216.098C93.6783 216.345 93.5765 216.643 93.3299 216.763L93.2993 216.778C93.0527 216.899 92.7547 216.797 92.6338 216.551L91.5497 214.341C91.4288 214.095 91.5306 213.797 91.7772 213.676L91.8078 213.661C92.0544 213.54 92.3524 213.642 92.4733 213.888Z" fill="white"/>
<path d="M100.254 207.026L101.339 209.236C101.459 209.483 101.358 209.781 101.111 209.901L101.08 209.916C100.834 210.037 100.536 209.935 100.415 209.689L99.3308 207.479C99.2099 207.233 99.3117 206.935 99.5584 206.814L99.5889 206.799C99.8355 206.678 100.134 206.78 100.254 207.026Z" fill="#105D38"/>
<path d="M103.586 226.896L105.683 228.186C105.917 228.33 105.99 228.636 105.846 228.87L105.828 228.899C105.684 229.133 105.378 229.206 105.144 229.062L103.047 227.772C102.813 227.628 102.74 227.322 102.884 227.088L102.902 227.059C103.046 226.825 103.352 226.752 103.586 226.896Z" fill="white"/>
<path d="M92.6815 196.273L95.1256 196.571C95.3983 196.604 95.5924 196.852 95.5591 197.124L95.555 197.158C95.5217 197.431 95.2738 197.625 95.0012 197.592L92.5571 197.294C92.2844 197.26 92.0903 197.013 92.1236 196.74L92.1277 196.706C92.1609 196.434 92.4088 196.24 92.6815 196.273Z" fill="white"/>
<path d="M102.766 214.518L104.863 215.808C105.097 215.952 105.17 216.258 105.026 216.492L105.008 216.521C104.864 216.755 104.558 216.828 104.324 216.684L102.227 215.394C101.993 215.25 101.92 214.944 102.064 214.71L102.082 214.681C102.226 214.447 102.532 214.374 102.766 214.518Z" fill="white"/>
<path d="M98.9416 222.237L97.7773 224.406C97.6474 224.648 97.3459 224.739 97.1039 224.609L97.0739 224.593C96.8319 224.463 96.741 224.162 96.8709 223.92L98.0351 221.751C98.165 221.509 98.4665 221.418 98.7085 221.548L98.7385 221.564C98.9805 221.694 99.0715 221.996 98.9416 222.237Z" fill="#105D38"/>
<path d="M97.0537 200.972L95.8895 203.141C95.7596 203.383 95.4581 203.474 95.2161 203.344L95.1861 203.328C94.9441 203.198 94.8531 202.897 94.9831 202.655L96.1473 200.486C96.2772 200.244 96.5787 200.153 96.8207 200.283L96.8507 200.299C97.0927 200.429 97.1837 200.73 97.0537 200.972Z" fill="#74B9FF"/>
<path d="M111.371 228.391L110.824 230.791C110.763 231.058 110.496 231.226 110.228 231.165L110.195 231.157C109.927 231.096 109.76 230.83 109.821 230.562L110.368 228.162C110.429 227.895 110.696 227.727 110.964 227.788L110.997 227.796C111.265 227.857 111.432 228.123 111.371 228.391Z" fill="#74B9FF"/>
<path d="M91.3236 204.128L90.7763 206.528C90.7152 206.796 90.4486 206.963 90.1808 206.902L90.1476 206.895C89.8798 206.833 89.7122 206.567 89.7733 206.299L90.3206 203.9C90.3816 203.632 90.6483 203.464 90.9161 203.525L90.9492 203.533C91.217 203.594 91.3846 203.86 91.3236 204.128Z" fill="white"/>
<path d="M107.668 222.2L105.305 222.891C105.041 222.969 104.765 222.818 104.688 222.554L104.678 222.521C104.601 222.258 104.752 221.982 105.016 221.905L107.379 221.213C107.642 221.136 107.918 221.287 107.996 221.55L108.005 221.583C108.082 221.847 107.931 222.123 107.668 222.2Z" fill="#74B9FF"/>
<path d="M98.8382 217.541L96.6184 216.476C96.3708 216.357 96.2664 216.06 96.3853 215.812L96.4 215.782C96.5188 215.534 96.8159 215.43 97.0636 215.549L99.2834 216.614C99.531 216.733 99.6354 217.029 99.5165 217.277L99.5018 217.308C99.3829 217.555 99.0858 217.659 98.8382 217.541Z" fill="#74B9FF"/>
<path d="M96.6353 208.98L93.3177 209.951L93.6068 210.938L96.9244 209.967L96.6353 208.98Z" fill="#74B9FF"/>
<path d="M54.6598 163.569C37.9599 163.569 24.4218 177.37 24.4218 194.392C24.4218 211.415 37.9599 225.216 54.6598 225.216C71.3596 225.216 84.8978 211.415 84.8978 194.392C84.8978 177.37 71.3596 163.569 54.6598 163.569ZM54.6598 203.962C49.6002 203.962 45.4978 199.781 45.4978 194.623C45.4978 189.465 49.6003 185.283 54.6598 185.283C59.7202 185.283 63.8226 189.465 63.8226 194.623C63.8226 199.781 59.7202 203.962 54.6598 203.962Z" fill="#105D38"/>
<path d="M50.5628 163.569C33.863 163.569 20.3248 177.37 20.3248 194.392C20.3248 211.415 33.863 225.216 50.5628 225.216C67.2627 225.216 80.8008 211.415 80.8008 194.392C80.8008 177.37 67.2627 163.569 50.5628 163.569ZM50.5628 204.998C44.9419 204.998 40.3842 200.354 40.3842 194.623C40.3842 188.892 44.9419 184.246 50.5628 184.246C56.1847 184.246 60.7424 188.892 60.7424 194.623C60.7424 200.354 56.1847 204.998 50.5628 204.998Z" fill="#FFAE58"/>
<path d="M54.5814 169.919H51.8822C51.6075 169.919 51.3849 169.697 51.3849 169.422V169.318C51.3849 169.043 51.6075 168.821 51.8822 168.821H54.5815C54.8562 168.821 55.0788 169.043 55.0788 169.318V169.422C55.0787 169.697 54.8561 169.919 54.5814 169.919Z" fill="white"/>
<path d="M70.5274 192.698H67.8283C67.5536 192.698 67.3309 192.475 67.3309 192.201V192.096C67.3309 191.822 67.5536 191.599 67.8283 191.599H70.5274C70.8021 191.599 71.0247 191.822 71.0247 192.096V192.201C71.0247 192.475 70.8021 192.698 70.5274 192.698Z" fill="#A9D8D5"/>
<path d="M76.6169 189.371L74.0261 190.128C73.7625 190.205 73.4863 190.054 73.4092 189.79L73.38 189.69C73.3029 189.426 73.4542 189.15 73.7178 189.073L76.3086 188.317C76.5722 188.24 76.8484 188.391 76.9255 188.654L76.9548 188.755C77.0318 189.018 76.8805 189.294 76.6169 189.371Z" fill="#105D38"/>
<path d="M36.8206 191.716H34.1214C33.8467 191.716 33.624 191.493 33.624 191.219V191.114C33.624 190.84 33.8467 190.617 34.1214 190.617H36.8206C37.0953 190.617 37.3179 190.84 37.3179 191.114V191.219C37.3179 191.493 37.0953 191.716 36.8206 191.716Z" fill="white"/>
<path d="M66.0879 188.391L63.4917 187.653C63.2275 187.578 63.0743 187.303 63.1495 187.039L63.1781 186.938C63.2532 186.674 63.5283 186.521 63.7925 186.596L66.3887 187.334C66.6529 187.409 66.8061 187.684 66.731 187.949L66.7024 188.049C66.6271 188.313 66.3521 188.466 66.0879 188.391Z" fill="#74B9FF"/>
<path d="M28.6647 184.247H25.9655C25.6908 184.247 25.4681 184.024 25.4681 183.749V183.645C25.4681 183.37 25.6908 183.148 25.9655 183.148H28.6647C28.9394 183.148 29.1621 183.37 29.1621 183.645V183.749C29.162 184.024 28.9393 184.247 28.6647 184.247Z" fill="#74B9FF"/>
<path d="M57.5066 180.397H54.8074C54.5327 180.397 54.3101 180.174 54.3101 179.9V179.795C54.3101 179.521 54.5327 179.298 54.8074 179.298H57.5066C57.7813 179.298 58.004 179.521 58.004 179.795V179.9C58.004 180.174 57.7812 180.397 57.5066 180.397Z" fill="#105D38"/>
<path d="M70.4371 177.602L68.0994 176.253C67.8616 176.115 67.7801 175.811 67.9174 175.573L67.9696 175.483C68.1069 175.245 68.4111 175.164 68.649 175.301L70.9867 176.65C71.2245 176.787 71.306 177.091 71.1687 177.329L71.1165 177.42C70.9792 177.658 70.675 177.739 70.4371 177.602Z" fill="#D5839A"/>
<path d="M38.2931 174.734L36.0109 176.175C35.7787 176.322 35.4715 176.252 35.3249 176.02L35.269 175.932C35.1223 175.699 35.1918 175.392 35.424 175.246L37.7063 173.805C37.9385 173.659 38.2457 173.728 38.3923 173.96L38.4481 174.049C38.5948 174.281 38.5254 174.588 38.2931 174.734Z" fill="white"/>
<path d="M72.382 181.76L70.9091 184.021C70.7592 184.251 70.4511 184.316 70.221 184.166L70.1334 184.109C69.9032 183.959 69.8381 183.651 69.988 183.421L71.4609 181.16C71.6108 180.93 71.9189 180.865 72.149 181.015L72.2366 181.072C72.4668 181.222 72.5319 181.529 72.382 181.76Z" fill="white"/>
<path d="M50.1971 180.543L47.9148 181.984C47.6826 182.13 47.3754 182.061 47.2288 181.829L47.173 181.74C47.0263 181.508 47.0957 181.201 47.328 181.055L49.6102 179.614C49.8424 179.467 50.1496 179.537 50.2962 179.769L50.352 179.857C50.4986 180.089 50.4293 180.396 50.1971 180.543Z" fill="white"/>
<path d="M42.6498 180.092L41.7167 177.56C41.6218 177.302 41.7537 177.016 42.0114 176.921L42.1095 176.885C42.3672 176.79 42.6531 176.922 42.7482 177.18L43.6813 179.712C43.7762 179.969 43.6443 180.255 43.3866 180.35L43.2885 180.386C43.0307 180.481 42.7449 180.349 42.6498 180.092Z" fill="#74B9FF"/>
<path d="M43.511 172.223L41.9375 170.031C41.7774 169.807 41.8285 169.497 42.0517 169.337L42.1367 169.276C42.3598 169.116 42.6706 169.167 42.8307 169.39L44.4041 171.582C44.5642 171.805 44.5131 172.116 44.2899 172.276L44.205 172.337C43.9817 172.497 43.671 172.446 43.511 172.223Z" fill="#105D38"/>
<path d="M66.406 181.813L64.8325 179.621C64.6724 179.398 64.7235 179.087 64.9467 178.927L65.0317 178.866C65.2548 178.706 65.5656 178.757 65.7257 178.98L67.2991 181.173C67.4592 181.396 67.4081 181.707 67.1849 181.867L67.1 181.928C66.8767 182.088 66.5661 182.036 66.406 181.813Z" fill="#105D38"/>
<path d="M31.7637 180.372L29.665 178.675C29.4515 178.503 29.4184 178.19 29.5911 177.976L29.6569 177.895C29.8296 177.681 30.1427 177.648 30.3562 177.821L32.4549 179.518C32.6685 179.69 32.7016 180.003 32.5289 180.217L32.4631 180.298C32.2904 180.512 31.9773 180.545 31.7637 180.372Z" fill="#A9D8D5"/>
<path d="M63.5003 173.764L61.4016 172.067C61.1881 171.894 61.155 171.581 61.3277 171.368L61.3934 171.287C61.5662 171.073 61.8793 171.04 62.0929 171.213L64.1916 172.91C64.4051 173.082 64.4382 173.395 64.2655 173.609L64.1998 173.69C64.027 173.903 63.7138 173.937 63.5003 173.764Z" fill="#74B9FF"/>
<path d="M27.1538 191.951L25.4832 189.832C25.3132 189.616 25.3503 189.304 25.566 189.134L25.6481 189.069C25.8639 188.899 26.1766 188.936 26.3466 189.152L28.0172 191.271C28.1872 191.487 28.1501 191.799 27.9344 191.969L27.8522 192.034C27.6364 192.204 27.3237 192.167 27.1538 191.951Z" fill="#A9D8D5"/>
<path d="M36.534 183.521L36.9935 180.862C37.0403 180.592 37.2976 180.41 37.5683 180.457L37.6713 180.475C37.942 180.522 38.1235 180.779 38.0767 181.05L37.6172 183.708C37.5704 183.979 37.3131 184.16 37.0424 184.114L36.9394 184.096C36.6687 184.049 36.4872 183.792 36.534 183.521Z" fill="#D5839A"/>
<path d="M46.9529 175.394L49.0729 173.724C49.2887 173.554 49.6013 173.591 49.7714 173.806L49.8361 173.889C50.006 174.104 49.969 174.417 49.7532 174.587L47.6332 176.257C47.4174 176.427 47.1047 176.39 46.9347 176.174L46.87 176.092C46.7 175.876 46.7371 175.563 46.9529 175.394Z" fill="#A9D8D5"/>
<path d="M30.4603 187.685L32.5804 186.015C32.7961 185.846 33.1088 185.883 33.2788 186.098L33.3435 186.18C33.5135 186.396 33.4764 186.709 33.2607 186.879L31.1406 188.549C30.9249 188.718 30.6122 188.681 30.4421 188.466L30.3775 188.384C30.2075 188.168 30.2446 187.855 30.4603 187.685Z" fill="#105D38"/>
<path d="M56.2977 175.539L56.7573 172.881C56.8041 172.61 57.0614 172.429 57.3321 172.475L57.4351 172.493C57.7058 172.54 57.8873 172.797 57.8405 173.068L57.381 175.727C57.3342 175.997 57.0769 176.179 56.8062 176.132L56.7032 176.114C56.4325 176.067 56.251 175.81 56.2977 175.539Z" fill="#D5839A"/>
<path d="M59.4809 183.783L61.2777 181.769C61.4606 181.565 61.775 181.547 61.9799 181.729L62.058 181.799C62.2629 181.982 62.2809 182.296 62.098 182.501L60.3012 184.514C60.1184 184.719 59.804 184.737 59.5991 184.554L59.521 184.485C59.3161 184.302 59.2981 183.988 59.4809 183.783Z" fill="#A9D8D5"/>
<path d="M46.9663 219.357L49.6652 219.398C49.9398 219.402 50.159 219.628 50.1548 219.903L50.1532 220.007C50.149 220.282 49.923 220.501 49.6484 220.497L46.9495 220.455C46.6749 220.451 46.4557 220.225 46.4599 219.951L46.4615 219.846C46.4657 219.572 46.6917 219.353 46.9663 219.357Z" fill="white"/>
<path d="M31.3698 196.338L34.0686 196.379C34.3432 196.383 34.5625 196.609 34.5583 196.883L34.5567 196.988C34.5525 197.263 34.3264 197.482 34.0518 197.478L31.353 197.436C31.0784 197.432 30.8591 197.206 30.8633 196.932L30.8649 196.827C30.869 196.553 31.0951 196.334 31.3698 196.338Z" fill="#A9D8D5"/>
<path d="M25.2302 199.571L27.8323 198.854C28.0971 198.781 28.3709 198.936 28.444 199.201L28.4718 199.302C28.5448 199.566 28.3893 199.84 28.1245 199.913L25.5224 200.63C25.2576 200.703 24.9838 200.548 24.9108 200.283L24.883 200.182C24.81 199.918 24.9655 199.644 25.2302 199.571Z" fill="#105D38"/>
<path d="M65.0576 197.834L67.7565 197.875C68.0311 197.879 68.2503 198.105 68.2461 198.38L68.2445 198.484C68.2403 198.759 68.0143 198.978 67.7397 198.974L65.0409 198.932C64.7663 198.928 64.547 198.702 64.5512 198.428L64.5528 198.323C64.5569 198.049 64.7829 197.83 65.0576 197.834Z" fill="white"/>
<path d="M35.7429 200.711L38.3275 201.489C38.5905 201.568 38.7396 201.845 38.6604 202.108L38.6302 202.208C38.5511 202.471 38.2737 202.62 38.0106 202.541L35.426 201.764C35.163 201.684 35.0139 201.407 35.0932 201.144L35.1233 201.044C35.2025 200.781 35.4799 200.632 35.7429 200.711Z" fill="#74B9FF"/>
<path d="M73.0991 205.426L75.798 205.468C76.0726 205.472 76.2918 205.698 76.2876 205.972L76.286 206.077C76.2818 206.351 76.0558 206.57 75.7812 206.566L73.0824 206.525C72.8078 206.521 72.5885 206.295 72.5927 206.02L72.5943 205.916C72.5985 205.641 72.8245 205.422 73.0991 205.426Z" fill="#74B9FF"/>
<path d="M44.2014 208.836L46.9003 208.877C47.1749 208.881 47.3941 209.107 47.3899 209.382L47.3883 209.486C47.3841 209.761 47.1581 209.98 46.8835 209.976L44.1846 209.934C43.91 209.93 43.6908 209.704 43.695 209.43L43.6966 209.325C43.7008 209.051 43.9267 208.832 44.2014 208.836Z" fill="#105D38"/>
<path d="M31.2295 211.434L33.5462 212.818C33.7819 212.959 33.8588 213.264 33.7179 213.5L33.6642 213.59C33.5232 213.825 33.218 213.902 32.9821 213.761L30.6654 212.377C30.4297 212.236 30.3528 211.93 30.4937 211.695L30.5474 211.605C30.6884 211.369 30.9938 211.293 31.2295 211.434Z" fill="#F6ACC1"/>
<path d="M63.326 214.791L65.6301 213.385C65.8645 213.242 66.1706 213.316 66.3137 213.55L66.3681 213.64C66.5112 213.874 66.4372 214.18 66.2027 214.323L63.8987 215.729C63.6643 215.872 63.3582 215.798 63.2151 215.563L63.1607 215.474C63.0176 215.24 63.0916 214.934 63.326 214.791Z" fill="white"/>
<path d="M29.3485 207.246L30.8557 205.008C31.0091 204.78 31.3181 204.72 31.546 204.873L31.6327 204.932C31.8605 205.085 31.921 205.394 31.7676 205.622L30.2604 207.86C30.107 208.088 29.7979 208.148 29.5701 207.995L29.4834 207.937C29.2555 207.783 29.1951 207.474 29.3485 207.246Z" fill="white"/>
<path d="M51.5122 208.801L53.8162 207.396C54.0507 207.253 54.3567 207.327 54.4998 207.561L54.5543 207.65C54.6974 207.885 54.6233 208.191 54.3889 208.334L52.0849 209.739C51.8505 209.882 51.5444 209.808 51.4013 209.574L51.3468 209.485C51.2037 209.25 51.2778 208.944 51.5122 208.801Z" fill="white"/>
<path d="M59.0516 209.367L59.946 211.913C60.0371 212.172 59.9008 212.456 59.6416 212.547L59.5429 212.582C59.2838 212.673 58.9999 212.536 58.9089 212.277L58.0144 209.732C57.9234 209.473 58.0597 209.189 58.3189 209.098L58.4176 209.063C58.6768 208.972 58.9606 209.108 59.0516 209.367Z" fill="#74B9FF"/>
<path d="M58.0704 217.223L59.6102 219.439C59.7668 219.664 59.711 219.974 59.4855 220.131L59.3996 220.19C59.174 220.347 58.8641 220.291 58.7074 220.066L57.1676 217.85C57.011 217.624 57.0668 217.314 57.2924 217.158L57.3782 217.098C57.6038 216.941 57.9137 216.997 58.0704 217.223Z" fill="#105D38"/>
<path d="M35.3245 207.284L36.8643 209.5C37.021 209.725 36.9651 210.035 36.7396 210.192L36.6538 210.251C36.4281 210.408 36.1183 210.352 35.9616 210.127L34.4218 207.911C34.2651 207.685 34.321 207.375 34.5465 207.219L34.6323 207.159C34.858 207.003 35.1678 207.058 35.3245 207.284Z" fill="#105D38"/>
<path d="M69.9408 209.253L72.0134 210.982C72.2243 211.158 72.2526 211.471 72.0766 211.682L72.0097 211.762C71.8337 211.973 71.5201 212.001 71.3092 211.825L69.2366 210.097C69.0257 209.921 68.9974 209.608 69.1734 209.397L69.2403 209.316C69.4163 209.106 69.7298 209.077 69.9408 209.253Z" fill="#A9D8D5"/>
<path d="M38.1072 215.377L40.1798 217.105C40.3907 217.281 40.419 217.595 40.243 217.805L40.1761 217.886C40.0001 218.097 39.6865 218.125 39.4756 217.949L37.403 216.22C37.192 216.044 37.1638 215.731 37.3397 215.52L37.4067 215.44C37.5827 215.229 37.8962 215.201 38.1072 215.377Z" fill="#74B9FF"/>
<path d="M74.7275 197.746L76.3656 199.89C76.5322 200.108 76.4904 200.42 76.2721 200.587L76.1891 200.65C75.9707 200.817 75.6587 200.775 75.492 200.557L73.8539 198.413C73.6872 198.194 73.7291 197.882 73.9473 197.716L74.0304 197.652C74.2486 197.486 74.5608 197.527 74.7275 197.746Z" fill="#A9D8D5"/>
<path d="M65.2192 206.032L64.719 208.683C64.6682 208.953 64.4081 209.131 64.1382 209.08L64.0354 209.06C63.7655 209.01 63.588 208.75 63.6388 208.48L64.139 205.828C64.1898 205.558 64.4499 205.381 64.7198 205.432L64.8226 205.451C65.0926 205.502 65.2701 205.762 65.2192 206.032Z" fill="#F6ACC1"/>
<path d="M54.6775 213.999L52.5322 215.637C52.3138 215.804 52.0018 215.762 51.8351 215.543L51.7716 215.46C51.6049 215.242 51.6468 214.93 51.8651 214.764L54.0104 213.126C54.2287 212.96 54.5408 213.001 54.7075 213.22L54.7709 213.303C54.9377 213.521 54.8959 213.833 54.6775 213.999Z" fill="#A9D8D5"/>
<path d="M71.3556 201.961L69.2103 203.598C68.9919 203.765 68.6799 203.723 68.5132 203.505L68.4497 203.422C68.283 203.203 68.3249 202.891 68.5431 202.725L70.6885 201.087C70.9068 200.921 71.2189 200.962 71.3856 201.181L71.449 201.264C71.6158 201.482 71.5739 201.794 71.3556 201.961Z" fill="#105D38"/>
<path d="M45.3358 213.711L44.8356 216.362C44.7847 216.632 44.5246 216.81 44.2547 216.759L44.152 216.74C43.8821 216.689 43.7045 216.429 43.7554 216.159L44.2555 213.507C44.3064 213.238 44.5665 213.06 44.8364 213.111L44.9391 213.13C45.209 213.181 45.3866 213.441 45.3358 213.711Z" fill="#F6ACC1"/>
<path d="M42.279 205.42L40.4518 207.406C40.2658 207.608 39.9512 207.621 39.7491 207.435L39.6721 207.364C39.47 207.179 39.4568 206.864 39.6428 206.662L41.47 204.676C41.656 204.474 41.9706 204.461 42.1727 204.647L42.2497 204.718C42.4518 204.903 42.465 205.218 42.279 205.42Z" fill="#A9D8D5"/>
<path d="M145.943 137.135L145.862 137.836H53.2295L53.3104 137.135H145.943Z" fill="white"/>
<path d="M144.313 145.62C144.187 145.86 144.049 146.093 143.903 146.32H54.4193C54.2724 146.093 54.1345 145.859 54.0076 145.62H144.313Z" fill="white"/>
<path d="M145.455 141.378L145.374 142.078H52.9455C52.9235 141.847 52.9105 141.614 52.9065 141.378H145.455Z" fill="white"/>
<path d="M155.321 194.923H117.417V237.346H155.321V194.923Z" fill="#4CD080"/>
<path d="M117.417 194.923H13.9897V237.346H117.417V194.923Z" fill="#AFFFCF"/>
<path d="M117.462 198.816H13.9897V199.516H117.462V198.816Z" fill="white"/>
<path d="M117.417 203.058H13.9897V203.758H117.417V203.058Z" fill="white"/>
<path d="M117.417 207.3H13.9897V208H117.417V207.3Z" fill="white"/>
<path d="M117.417 211.542H13.9897V212.242H117.417V211.542Z" fill="white"/>
<path d="M117.417 215.785H13.9897V216.485H117.417V215.785Z" fill="white"/>
<path d="M117.417 220.027H13.9897V220.727H117.417V220.027Z" fill="white"/>
<path d="M117.417 228.512H13.9897V229.212H117.417V228.512Z" fill="white"/>
<path d="M117.417 224.269H13.9897V224.969H117.417V224.269Z" fill="white"/>
<path d="M117.417 232.754H13.9897V233.454H117.417V232.754Z" fill="white"/>
<path d="M155.321 198.816H117.463V199.516H155.321V198.816Z" fill="#D4FFE5"/>
<path d="M155.321 203.058H117.417V203.758H155.321V203.058Z" fill="#D4FFE5"/>
<path d="M155.321 207.3H117.417V208H155.321V207.3Z" fill="#D4FFE5"/>
<path d="M155.321 211.542H117.417V212.242H155.321V211.542Z" fill="#D4FFE5"/>
<path d="M155.321 215.785H117.417V216.485H155.321V215.785Z" fill="#D4FFE5"/>
<path d="M155.321 220.027H117.417V220.727H155.321V220.027Z" fill="#D4FFE5"/>
<path d="M155.321 228.512H117.417V229.212H155.321V228.512Z" fill="#D4FFE5"/>
<path d="M155.321 224.269H117.417V224.969H155.321V224.269Z" fill="#D4FFE5"/>
<path d="M155.321 232.754H117.417V233.454H155.321V232.754Z" fill="#D4FFE5"/>
<path d="M194.369 158.997L185.361 237.346H140.615L131.607 158.997H194.369Z" fill="white"/>
<path d="M194.369 158.997L185.361 237.346H175.613L184.276 161.993H131.951L131.607 158.997H194.369Z" fill="#E0F1F0"/>
<path d="M199.227 158.997H126.749L127.324 155.793C127.57 154.425 128.761 153.428 130.152 153.428H131.395L132.307 149.951C132.947 147.508 135.155 145.805 137.681 145.805H188.295C190.822 145.805 193.029 147.508 193.669 149.951L194.581 153.428H195.825C197.216 153.428 198.407 154.425 198.652 155.793L199.227 158.997Z" fill="#105D38"/>
<path d="M140.615 237.346H185.361" stroke="#0D4B2D" stroke-width="5" stroke-miterlimit="10" stroke-linecap="round"/>
<path d="M161.279 207.864C169.033 207.864 175.319 201.156 175.319 192.881C175.319 184.605 169.033 177.897 161.279 177.897C153.525 177.897 147.239 184.605 147.239 192.881C147.239 201.156 153.525 207.864 161.279 207.864Z" fill="#A9D8D5"/>
<path d="M163.471 188.623L158.45 196.33C158.185 196.738 157.597 196.763 157.297 196.381C156.035 194.776 156.002 192.235 157.368 190.138C158.734 188.041 161.071 187.044 163.051 187.548C163.522 187.669 163.736 188.216 163.471 188.623Z" fill="#105D38"/>
<path d="M165.31 195.308C163.958 197.384 161.653 198.382 159.687 197.913C159.211 197.799 158.993 197.246 159.26 196.836L164.261 189.158C164.528 188.749 165.122 188.724 165.418 189.113C166.643 190.721 166.663 193.232 165.31 195.308Z" fill="#105D38"/>
<defs>
<linearGradient id="paint0_linear_164_4386" x1="242.876" y1="-29.8854" x2="149.666" y2="77.8191" gradientUnits="userSpaceOnUse">
<stop offset="0.01"/>
<stop offset="0.13" stop-opacity="0.69"/>
<stop offset="0.25" stop-opacity="0.32"/>
<stop offset="1" stop-opacity="0"/>
</linearGradient>
<linearGradient id="paint1_linear_164_4386" x1="304.966" y1="-397.295" x2="206.777" y2="-389.716" gradientUnits="userSpaceOnUse">
<stop offset="0.01"/>
<stop offset="0.13" stop-opacity="0.69"/>
<stop offset="0.25" stop-opacity="0.32"/>
<stop offset="1" stop-opacity="0"/>
</linearGradient>
</defs>
</svg>
