<svg width="352" height="342" viewBox="0 0 352 342" fill="none" xmlns="http://www.w3.org/2000/svg">
<g clip-path="url(#clip0_165_4692)">
<path d="M243.192 40.8621C247.207 47.427 242.096 139.374 245.46 143.959C253.35 154.713 270.262 185.52 269.599 198.879C256.969 199.339 238.145 199.16 225.668 197.206C223.374 196.848 220.939 196.376 219.295 194.767C217.897 193.167 216.94 191.23 216.517 189.147L201.491 137.42C195.424 116.537 189.37 94.1348 195.921 73.3928C199.222 62.9324 205.531 53.7236 211.75 44.6937C215.23 39.5849 209.596 30.1846 216.071 29.0989C222.851 27.9494 239.814 35.3573 243.192 40.8621Z" fill="url(#paint0_linear_165_4692)"/>
<path d="M257.021 288.074V344.371C234.24 347.228 211.114 346.753 188.493 342.966C188.007 334.073 186.716 314.929 184.363 305.86C181.256 293.814 170.108 290.944 160.161 280.079C150.214 269.214 146.507 227.869 144.026 221.031C141.546 214.193 126.664 202.135 118.891 194.093C116.68 192.006 115.247 189.322 114.801 186.432C114.355 183.541 114.919 180.594 116.41 178.02C116.41 178.02 153.014 194.093 153.014 190.645C153.014 187.196 144.653 179.768 144.653 179.768C144.653 179.768 122.918 170.32 115.158 162.266C107.397 154.212 112.37 144.551 112.37 144.551L158.921 160.211L163.255 156.786L145.266 148.756C145.266 148.756 127.239 140.146 116.692 132.694C106.144 125.243 110.517 107.493 110.517 107.493L178.162 136.143L170.095 120.105C170.095 120.105 129.758 108.626 118.584 98.848C107.41 89.0696 110.517 78.2047 110.517 78.2047C110.517 78.2047 191.83 95.9783 202.377 101.73C212.925 107.481 247.675 176.839 248.902 180.252C250.13 183.665 257.021 288.074 257.021 288.074Z" fill="#FCD4D0"/>
<path d="M194.099 249.686L183.279 287.211C183.279 287.211 156.361 289.995 147.389 250.006C138.417 210.016 194.099 249.686 194.099 249.686Z" fill="url(#paint1_linear_165_4692)"/>
<path d="M212.604 28.23H140.532C129.713 28.23 120.943 37.019 120.943 47.8608V230.592C120.943 241.434 129.713 250.223 140.532 250.223H212.604C223.423 250.223 232.193 241.434 232.193 230.592V47.8608C232.193 37.019 223.423 28.23 212.604 28.23Z" fill="#105D38"/>
<path d="M212.604 28.23H140.532C129.713 28.23 120.943 37.019 120.943 47.8608V230.592C120.943 241.434 129.713 250.223 140.532 250.223H212.604C223.423 250.223 232.193 241.434 232.193 230.592V47.8608C232.193 37.019 223.423 28.23 212.604 28.23Z" fill="#4CD080"/>
<path d="M212.808 28H140.328C129.622 28 120.943 36.6975 120.943 47.4265V225.841C120.943 236.57 129.622 245.267 140.328 245.267H212.808C223.514 245.267 232.193 236.57 232.193 225.841V47.4265C232.193 36.6975 223.514 28 212.808 28Z" fill="#105D38"/>
<path d="M209.469 33.0195H144.254C134.631 33.0195 126.831 40.8364 126.831 50.4791V210.616C126.831 220.259 134.631 228.076 144.254 228.076H209.469C219.091 228.076 226.891 220.259 226.891 210.616V50.4791C226.891 40.8364 219.091 33.0195 209.469 33.0195Z" fill="#4CD080"/>
<path opacity="0.18" d="M179.646 71.3359C171.018 71.3334 162.582 73.895 155.407 78.6968C148.231 83.4987 142.638 90.325 139.333 98.3127C136.029 106.3 135.163 115.091 136.843 123.572C138.524 132.053 142.677 139.844 148.776 145.96C154.876 152.076 162.648 156.242 171.11 157.932C179.572 159.621 188.344 158.758 196.316 155.451C204.289 152.144 211.104 146.543 215.9 139.355C220.695 132.167 223.256 123.715 223.259 115.068C223.256 103.475 218.66 92.3573 210.483 84.1575C202.305 75.9576 191.214 71.3461 179.646 71.3359ZM179.646 151.341C172.623 151.343 165.757 149.259 159.916 145.35C154.075 141.442 149.522 135.885 146.833 129.383C144.143 122.882 143.438 115.727 144.807 108.823C146.175 101.92 149.556 95.5786 154.521 90.6009C159.487 85.6232 165.813 82.233 172.701 80.8589C179.59 79.4849 186.729 80.1888 193.218 82.8817C199.707 85.5745 205.253 90.1353 209.156 95.9872C213.058 101.839 215.14 108.719 215.14 115.758C215.13 125.189 211.388 134.232 204.734 140.903C198.08 147.574 189.058 151.327 179.646 151.341Z" fill="white"/>
<path d="M158.885 107.698C158.671 107.697 158.46 107.658 158.26 107.583C157.855 107.416 157.532 107.096 157.361 106.692C157.189 106.288 157.183 105.833 157.343 105.425C157.343 105.271 163.817 89.7915 179.633 90.2768C179.851 90.2834 180.065 90.3329 180.264 90.4225C180.462 90.5121 180.641 90.6401 180.79 90.799C180.939 90.958 181.056 91.1448 181.133 91.3489C181.21 91.5529 181.246 91.7702 181.239 91.9883C181.236 92.2063 181.189 92.4214 181.102 92.6211C181.014 92.8207 180.888 93.0008 180.73 93.1508C180.572 93.3007 180.386 93.4175 180.182 93.4943C179.978 93.571 179.762 93.6061 179.544 93.5976C165.958 93.2144 160.631 106.114 160.427 106.663C160.305 106.973 160.092 107.237 159.817 107.422C159.541 107.607 159.216 107.703 158.885 107.698Z" fill="white"/>
<path d="M201.529 114.033C201.105 114.034 200.697 113.871 200.388 113.579C200.08 113.287 199.895 112.887 199.873 112.462C199.799 108.824 198.678 105.284 196.642 102.27C194.607 99.256 191.745 96.8963 188.402 95.4753C187.991 95.3278 187.655 95.0237 187.466 94.6291C187.278 94.2345 187.252 93.7812 187.395 93.3679C187.464 93.1607 187.573 92.9695 187.717 92.8054C187.861 92.6413 188.036 92.5077 188.232 92.4124C188.428 92.3172 188.641 92.2623 188.858 92.2509C189.076 92.2395 189.293 92.2719 189.498 92.3461C193.478 93.9597 196.897 96.7096 199.331 100.254C201.764 103.799 203.105 107.982 203.186 112.283C203.207 112.723 203.054 113.153 202.761 113.481C202.467 113.808 202.057 114.007 201.619 114.033H201.529Z" fill="white"/>
<path d="M198.177 127.099C197.809 127.099 197.451 126.977 197.158 126.755C196.814 126.483 196.592 126.086 196.539 125.65C196.487 125.215 196.608 124.776 196.877 124.43C198.108 122.598 198.894 120.503 199.172 118.312C199.185 118.087 199.243 117.867 199.344 117.665C199.445 117.464 199.586 117.285 199.758 117.139C199.93 116.994 200.13 116.885 200.345 116.82C200.561 116.754 200.787 116.734 201.011 116.759C201.234 116.784 201.451 116.855 201.646 116.966C201.842 117.078 202.012 117.228 202.148 117.408C202.284 117.588 202.381 117.794 202.435 118.013C202.488 118.232 202.497 118.46 202.46 118.683C202.098 121.48 201.066 124.149 199.452 126.461C199.3 126.656 199.107 126.814 198.887 126.924C198.666 127.035 198.424 127.095 198.177 127.099Z" fill="white"/>
<path d="M164.416 109.729C164.182 109.729 163.952 109.676 163.741 109.576C163.343 109.394 163.033 109.063 162.878 108.654C162.723 108.245 162.735 107.792 162.912 107.392C164.206 104.477 166.204 101.93 168.725 99.9818C171.245 98.0331 174.21 96.7435 177.352 96.2288C182.284 95.4242 186.987 96.6886 189.6 99.5241C189.759 99.682 189.885 99.8706 189.969 100.079C190.054 100.286 190.095 100.509 190.091 100.734C190.087 100.958 190.038 101.18 189.946 101.384C189.854 101.589 189.722 101.773 189.557 101.925C189.392 102.077 189.199 102.194 188.987 102.269C188.776 102.344 188.552 102.375 188.329 102.361C188.105 102.347 187.887 102.287 187.687 102.186C187.487 102.085 187.31 101.944 187.166 101.772C185.33 99.7795 181.685 98.8854 177.875 99.5113C175.275 99.9344 172.822 101 170.737 102.613C168.651 104.225 167 106.333 165.933 108.746C165.801 109.038 165.587 109.286 165.319 109.461C165.05 109.635 164.736 109.728 164.416 109.729Z" fill="white"/>
<path d="M184.158 138.351C183.828 138.355 183.505 138.26 183.23 138.078C182.955 137.895 182.741 137.634 182.616 137.329C182.491 137.023 182.461 136.686 182.529 136.363C182.597 136.04 182.76 135.745 182.998 135.516C200.063 118.848 190.645 106.357 190.645 106.229C190.465 105.887 190.41 105.492 190.489 105.113C190.568 104.735 190.777 104.396 191.079 104.155C191.382 103.914 191.758 103.786 192.144 103.794C192.531 103.802 192.902 103.945 193.194 104.198C193.309 104.339 204.448 119.167 185.279 137.891C184.977 138.181 184.576 138.345 184.158 138.351Z" fill="white"/>
<path d="M158.783 122.948C158.464 122.95 158.151 122.86 157.882 122.687C157.613 122.515 157.399 122.269 157.266 121.978C155.762 118.606 156.718 112.386 156.833 111.696C156.908 111.264 157.148 110.878 157.503 110.62C157.858 110.362 158.299 110.254 158.732 110.317C158.947 110.352 159.153 110.43 159.339 110.546C159.524 110.661 159.684 110.813 159.811 110.991C159.938 111.169 160.028 111.37 160.077 111.583C160.126 111.796 160.132 112.017 160.096 112.233C159.739 114.48 159.458 118.759 160.287 120.611C160.403 120.863 160.453 121.14 160.434 121.417C160.414 121.693 160.325 121.961 160.175 122.194C160.025 122.427 159.819 122.618 159.576 122.75C159.332 122.882 159.06 122.95 158.783 122.948Z" fill="white"/>
<path d="M161.676 130.726C161.328 130.731 160.987 130.625 160.703 130.422C160.419 130.22 160.206 129.933 160.096 129.602C159.985 129.271 159.982 128.913 160.088 128.58C160.193 128.248 160.401 127.957 160.682 127.75C163.346 125.745 162.619 118.337 161.523 114.135C161.415 113.71 161.478 113.259 161.7 112.881C161.923 112.503 162.285 112.228 162.709 112.117C162.919 112.06 163.138 112.045 163.354 112.074C163.57 112.103 163.778 112.175 163.965 112.286C164.153 112.396 164.317 112.544 164.447 112.719C164.577 112.894 164.67 113.093 164.722 113.305C165.079 114.582 167.959 126.422 162.67 130.394C162.385 130.613 162.035 130.73 161.676 130.726Z" fill="white"/>
<path d="M165.818 134.571C165.459 134.57 165.11 134.452 164.824 134.235C164.537 134.019 164.328 133.715 164.229 133.369C164.13 133.023 164.146 132.655 164.274 132.318C164.402 131.982 164.635 131.697 164.939 131.505C165.194 131.339 170.801 127.674 168.456 118.273C166.94 112.168 168.456 108.349 170.126 106.229C171.322 104.753 172.837 103.568 174.557 102.765C176.277 101.962 178.157 101.561 180.054 101.593C180.271 101.581 180.489 101.613 180.693 101.688C180.897 101.762 181.085 101.878 181.243 102.027C181.402 102.176 181.528 102.356 181.615 102.556C181.702 102.756 181.748 102.971 181.749 103.189C181.758 103.407 181.723 103.624 181.647 103.828C181.572 104.032 181.457 104.219 181.309 104.378C181.16 104.537 180.982 104.665 180.784 104.755C180.587 104.845 180.373 104.894 180.156 104.901C178.753 104.864 177.36 105.145 176.08 105.722C174.801 106.299 173.667 107.158 172.764 108.234C171.094 110.444 170.712 113.65 171.668 117.469C174.612 129.296 167.003 134.072 166.685 134.328C166.423 134.486 166.124 134.57 165.818 134.571Z" fill="white"/>
<path d="M182.998 126.269C182.693 126.264 182.395 126.174 182.138 126.009C181.88 125.844 181.674 125.611 181.542 125.335C181.409 125.059 181.356 124.752 181.388 124.448C181.421 124.143 181.537 123.854 181.724 123.612C184.184 120.393 186.146 115.553 185.178 113.011C184.987 112.534 184.666 112.12 184.251 111.817C183.836 111.514 183.345 111.335 182.833 111.3C181.01 110.955 179.71 111.159 178.933 111.925C177.569 113.203 177.76 116.23 177.939 117.264C177.996 117.485 178.008 117.716 177.973 117.941C177.937 118.167 177.856 118.383 177.734 118.575C177.612 118.768 177.451 118.933 177.262 119.061C177.073 119.189 176.86 119.276 176.636 119.317C176.412 119.359 176.182 119.353 175.96 119.302C175.738 119.25 175.529 119.153 175.346 119.016C175.164 118.88 175.011 118.707 174.898 118.509C174.784 118.311 174.713 118.091 174.689 117.864C174.587 117.315 173.771 112.385 176.6 109.575C178.193 107.992 180.5 107.481 183.457 108.043C184.53 108.188 185.544 108.62 186.391 109.295C187.239 109.969 187.89 110.86 188.275 111.874C189.779 115.846 187.293 121.811 184.349 125.655C184.189 125.858 183.983 126.02 183.748 126.126C183.513 126.233 183.256 126.282 182.998 126.269Z" fill="white"/>
<path d="M171.171 136.959C170.842 136.957 170.522 136.857 170.25 136.672C169.979 136.487 169.768 136.225 169.645 135.92C169.522 135.615 169.493 135.28 169.56 134.958C169.627 134.636 169.789 134.341 170.024 134.111C174.612 129.641 174.485 122.961 174.485 122.897C174.471 122.457 174.633 122.029 174.934 121.708C175.235 121.387 175.651 121.199 176.09 121.185C176.53 121.172 176.957 121.334 177.277 121.636C177.597 121.937 177.785 122.354 177.798 122.795C177.798 123.127 177.989 130.982 172.331 136.487C172.021 136.791 171.605 136.961 171.171 136.959Z" fill="white"/>
<path d="M177.301 138.747C177.058 138.747 176.818 138.691 176.6 138.581C176.404 138.49 176.228 138.36 176.082 138.199C175.936 138.039 175.823 137.852 175.75 137.648C175.676 137.443 175.644 137.227 175.654 137.01C175.664 136.793 175.717 136.581 175.81 136.385L179.149 129.296C179.344 128.911 179.682 128.617 180.09 128.477C180.498 128.336 180.944 128.361 181.334 128.546C181.724 128.731 182.027 129.06 182.178 129.465C182.329 129.87 182.317 130.318 182.144 130.714L178.805 137.802C178.669 138.087 178.456 138.326 178.19 138.494C177.924 138.661 177.615 138.749 177.301 138.747Z" fill="white"/>
<path opacity="0.18" d="M159.293 207.19C162.664 207.19 165.397 204.451 165.397 201.073C165.397 197.694 162.664 194.955 159.293 194.955C155.921 194.955 153.188 197.694 153.188 201.073C153.188 204.451 155.921 207.19 159.293 207.19Z" fill="white"/>
<path opacity="0.18" d="M175.389 207.19C178.761 207.19 181.494 204.451 181.494 201.072C181.494 197.694 178.761 194.955 175.389 194.955C172.017 194.955 169.284 197.694 169.284 201.072C169.284 204.451 172.017 207.19 175.389 207.19Z" fill="white"/>
<path opacity="0.18" d="M191.473 207.19C194.845 207.19 197.578 204.451 197.578 201.072C197.578 197.694 194.845 194.955 191.473 194.955C188.102 194.955 185.368 197.694 185.368 201.072C185.368 204.451 188.102 207.19 191.473 207.19Z" fill="white"/>
<path d="M231.849 202.557C231.849 202.557 234.398 204.192 235.099 201.395C235.8 198.598 239.037 168.609 239.037 168.609L231.849 153.959V202.557Z" fill="url(#paint2_linear_165_4692)"/>
<path d="M190.199 234.181H162.594C160.989 234.181 159.688 235.482 159.688 237.087C159.688 238.691 160.989 239.992 162.594 239.992H190.199C191.804 239.992 193.105 238.691 193.105 237.087C193.105 235.482 191.804 234.181 190.199 234.181Z" fill="white"/>
<path d="M211.312 117.442C210.863 122.112 209.397 126.628 207.018 130.671C204.638 134.715 201.402 138.189 197.538 140.85C193.673 143.511 189.273 145.294 184.646 146.074C180.019 146.854 175.278 146.612 170.755 145.366C166.231 144.119 162.035 141.898 158.461 138.858C154.887 135.817 152.022 132.032 150.066 127.767C148.11 123.502 147.111 118.861 147.139 114.169C147.168 109.477 148.222 104.849 150.229 100.607C155.864 88.7194 168.498 81.0508 182.352 82.3727C200.034 84.0594 213 99.7614 211.312 117.442Z" fill="#E0F1F0"/>
<path d="M199.919 139.065L198.801 139.958C197.644 140.841 196.43 141.644 195.165 142.364C191.419 144.487 187.285 145.836 183.008 146.332C178.731 146.828 174.397 146.461 170.265 145.251C166.133 144.042 162.285 142.015 158.95 139.292C155.616 136.568 152.861 133.203 150.851 129.395C155.958 125.642 164.507 121.158 175.442 122.073C193.733 123.612 199.919 139.065 199.919 139.065Z" fill="#FFAE58"/>
<path d="M178.125 129.697C177.919 129.698 177.714 129.686 177.509 129.661C176.153 129.499 174.916 128.805 174.07 127.732C173.225 126.658 172.841 125.293 173.002 123.936L175.443 103.407C175.605 102.05 176.299 100.813 177.373 99.9683C177.905 99.5499 178.514 99.2403 179.165 99.0572C179.817 98.8741 180.498 98.8211 181.17 98.9012C181.841 98.9814 182.491 99.193 183.081 99.5243C183.671 99.8554 184.19 100.3 184.609 100.831C185.027 101.363 185.337 101.972 185.52 102.623C185.703 103.275 185.756 103.956 185.676 104.628L183.235 125.157C183.086 126.407 182.483 127.56 181.542 128.396C180.6 129.233 179.385 129.696 178.125 129.697Z" fill="#FCD4D0"/>
<path d="M182.439 119.21L183.532 119.332C184.802 119.475 186.089 119.336 187.3 118.926C188.511 118.515 189.617 117.843 190.539 116.956C191.461 116.07 192.176 114.991 192.633 113.797C193.091 112.602 193.279 111.322 193.186 110.047L192.722 103.728C192.572 101.688 191.708 99.7653 190.281 98.2985C188.855 96.8316 186.957 95.9141 184.921 95.7073C182.625 95.4744 180.33 96.1631 178.541 97.6222C176.753 99.0812 175.617 101.191 175.384 103.487L174.755 109.682C174.523 111.962 175.2 114.241 176.639 116.025C178.077 117.808 180.161 118.953 182.439 119.21Z" fill="#FCD4D0"/>
<path d="M177.376 112.494L177.377 112.493C178.882 111.567 179.352 109.596 178.426 108.091L177.475 106.545C176.549 105.04 174.578 104.57 173.072 105.496L173.071 105.497C171.566 106.423 171.096 108.394 172.023 109.899L172.974 111.445C173.9 112.95 175.871 113.42 177.376 112.494Z" fill="#FCD4D0"/>
<path d="M173.433 107.997L175.998 110.709" stroke="white" stroke-linecap="square"/>
<path d="M188.687 104.531L188.867 109.609L187.061 109.682" stroke="white" stroke-linecap="square"/>
<path d="M183.306 111.259C183.157 111.535 183.064 111.838 183.031 112.15C182.999 112.462 183.028 112.777 183.118 113.078C183.208 113.379 183.356 113.659 183.553 113.902C183.751 114.146 183.995 114.348 184.271 114.497C184.547 114.647 184.85 114.74 185.162 114.772C185.474 114.805 185.789 114.775 186.09 114.686C186.391 114.596 186.671 114.448 186.915 114.25C187.158 114.052 187.36 113.809 187.51 113.533C188.137 112.371 186.916 111.84 185.747 111.213C184.578 110.585 183.934 110.098 183.306 111.259Z" fill="white"/>
<path d="M178.048 110.341L180.489 101.174L181.068 99.0048C181.612 99.5878 182.249 100.077 182.953 100.452C185.507 101.826 193.209 101.279 194.276 95.8783C195.146 91.4745 190.47 94.0058 188.075 93.7306C184.312 93.2967 181.702 91.0826 176.55 93.8662C170.387 97.2002 173.307 105.373 173.307 105.373C173.307 105.373 176.018 104.312 178.048 110.341Z" fill="#030319"/>
<path d="M183.804 119.359L180.54 119.062L183.52 121.97L183.804 119.359Z" fill="#105D38"/>
<path d="M185.208 107.274C185.703 107.274 186.105 106.873 186.105 106.378C186.105 105.883 185.703 105.482 185.208 105.482C184.713 105.482 184.312 105.883 184.312 106.378C184.312 106.873 184.713 107.274 185.208 107.274Z" fill="white"/>
<path d="M190.555 107.274C191.05 107.274 191.451 106.873 191.451 106.378C191.451 105.883 191.05 105.482 190.555 105.482C190.06 105.482 189.659 105.883 189.659 106.378C189.659 106.873 190.06 107.274 190.555 107.274Z" fill="white"/>
<path d="M239.528 207.071C233.727 197.027 227.774 186.936 219.85 178.234C211.926 169.532 201.802 162.197 190.011 159.159C187.18 158.417 183.691 158.122 181.77 160.242C180.507 161.749 180.507 163.916 180.797 165.847C181.759 172.314 184.382 178.47 188.444 183.792C191.54 187.842 195.42 191.339 198.365 195.484C201.309 199.629 203.331 204.739 202.042 209.555C194.737 236.755 186.99 267.076 206.352 288.541C208.217 290.821 210.572 292.714 213.265 294.099C215.846 295.115 218.595 295.708 221.392 295.854C226.186 296.309 230.984 296.552 235.787 296.584C238.925 296.779 242.072 296.341 245.013 295.3C253.228 291.85 254.378 281.618 254.34 273.222C254.239 250.108 251.269 227.453 239.528 207.071Z" fill="#FCD4D0"/>
</g>
<defs>
<linearGradient id="paint0_linear_165_4692" x1="291.673" y1="108.427" x2="87.6042" y2="131.46" gradientUnits="userSpaceOnUse">
<stop stop-opacity="0"/>
<stop offset="0.99"/>
</linearGradient>
<linearGradient id="paint1_linear_165_4692" x1="6727.9" y1="16338.3" x2="11021.5" y2="13258.2" gradientUnits="userSpaceOnUse">
<stop stop-opacity="0"/>
<stop offset="0.99"/>
</linearGradient>
<linearGradient id="paint2_linear_165_4692" x1="1745.23" y1="8141.56" x2="4105.97" y2="14964.3" gradientUnits="userSpaceOnUse">
<stop stop-opacity="0"/>
<stop offset="0.99"/>
</linearGradient>
<clipPath id="clip0_165_4692">
<rect width="250" height="324" fill="white" transform="translate(62)"/>
</clipPath>
</defs>
</svg>
